<svg width="40" height="40" viewBox="0 0 40 40" fill="none" xmlns="http://www.w3.org/2000/svg">
<circle cx="20" cy="20" r="19.5" fill="white" stroke="#E5E5E5"/>
<g clip-path="url(#clip0_91_16)">
<path d="M28.4678 14.7133C27.8316 14.9947 27.1569 15.1795 26.4661 15.2616C27.1942 14.8261 27.7392 14.1408 27.9994 13.3333C27.3161 13.7399 26.5669 14.0249 25.7861 14.1791C25.2616 13.6179 24.5664 13.2457 23.8086 13.1204C23.0507 12.9951 22.2727 13.1237 21.5955 13.4861C20.9183 13.8486 20.3798 14.4247 20.0637 15.1248C19.7476 15.8249 19.6717 16.6098 19.8478 17.3574C18.462 17.288 17.1064 16.9279 15.8688 16.3005C14.6313 15.6731 13.5395 14.7925 12.6644 13.7158C12.3547 14.2478 12.1919 14.8526 12.1928 15.4683C12.1928 16.6766 12.8078 17.7441 13.7428 18.3691C13.1894 18.3517 12.6483 18.2023 12.1644 17.9333V17.9766C12.1646 18.7814 12.4431 19.5613 12.9526 20.1842C13.4622 20.807 14.1715 21.2345 14.9603 21.3941C14.4466 21.5333 13.908 21.5538 13.3853 21.4541C13.6077 22.1468 14.0411 22.7526 14.6249 23.1867C15.2087 23.6208 15.9137 23.8614 16.6411 23.8749C15.9182 24.4427 15.0904 24.8624 14.2052 25.1101C13.3199 25.3577 12.3945 25.4285 11.4819 25.3183C13.075 26.3428 14.9295 26.8867 16.8236 26.8849C23.2344 26.8849 26.7403 21.5741 26.7403 16.9683C26.7403 16.8183 26.7361 16.6666 26.7294 16.5183C27.4118 16.0251 28.0008 15.4141 28.4686 14.7141L28.4678 14.7133Z" fill="#141414"/>
</g>
<defs>
<clipPath id="clip0_91_16">
<rect width="20" height="20" fill="white" transform="translate(10 10)"/>
</clipPath>
</defs>
</svg>
