<svg width="40" height="40" viewBox="0 0 40 40" fill="none" xmlns="http://www.w3.org/2000/svg">
<circle cx="20" cy="20" r="19.5" fill="white" stroke="#E5E5E5"/>
<g clip-path="url(#clip0_91_26)">
<path d="M15.7833 14.1665C15.7831 14.6086 15.6073 15.0324 15.2945 15.3448C14.9818 15.6572 14.5578 15.8326 14.1158 15.8324C13.6738 15.8321 13.2499 15.6563 12.9375 15.3436C12.6251 15.0309 12.4497 14.6069 12.45 14.1649C12.4502 13.7228 12.626 13.299 12.9387 12.9866C13.2514 12.6742 13.6754 12.4988 14.1175 12.499C14.5595 12.4992 14.9833 12.6751 15.2957 12.9878C15.6081 13.3005 15.7835 13.7245 15.7833 14.1665ZM15.8333 17.0665H12.5V27.4999H15.8333V17.0665ZM21.1 17.0665H17.7833V27.4999H21.0666V22.0249C21.0666 18.9749 25.0416 18.6915 25.0416 22.0249V27.4999H28.3333V20.8915C28.3333 15.7499 22.45 15.9415 21.0666 18.4665L21.1 17.0665Z" fill="#141414"/>
</g>
<defs>
<clipPath id="clip0_91_26">
<rect width="20" height="20" fill="white" transform="translate(10 10)"/>
</clipPath>
</defs>
</svg>
