<svg width="40" height="40" viewBox="0 0 40 40" fill="none" xmlns="http://www.w3.org/2000/svg">
<circle cx="20" cy="20" r="19.5" fill="white" stroke="#E5E5E5"/>
<g clip-path="url(#clip0_91_21)">
<path d="M20.0008 11.6675C22.265 11.6675 22.5475 11.6758 23.4358 11.7175C24.3233 11.7591 24.9275 11.8983 25.4591 12.105C26.0091 12.3166 26.4725 12.6033 26.9358 13.0658C27.3596 13.4824 27.6874 13.9863 27.8967 14.5425C28.1025 15.0733 28.2425 15.6783 28.2842 16.5658C28.3233 17.4541 28.3342 17.7366 28.3342 20.0008C28.3342 22.265 28.3258 22.5475 28.2842 23.4358C28.2425 24.3233 28.1025 24.9275 27.8967 25.4591C27.688 26.0156 27.3601 26.5197 26.9358 26.9358C26.5191 27.3594 26.0152 27.6873 25.4591 27.8967C24.9283 28.1025 24.3233 28.2425 23.4358 28.2842C22.5475 28.3233 22.265 28.3342 20.0008 28.3342C17.7366 28.3342 17.4541 28.3258 16.5658 28.2842C15.6783 28.2425 15.0741 28.1025 14.5425 27.8967C13.9861 27.6879 13.4821 27.3599 13.0658 26.9358C12.642 26.5193 12.3141 26.0154 12.105 25.4591C11.8983 24.9283 11.7591 24.3233 11.7175 23.4358C11.6783 22.5475 11.6675 22.265 11.6675 20.0008C11.6675 17.7366 11.6758 17.4541 11.7175 16.5658C11.7591 15.6775 11.8983 15.0741 12.105 14.5425C12.3135 13.986 12.6415 13.4819 13.0658 13.0658C13.4822 12.6418 13.9862 12.3139 14.5425 12.105C15.0741 11.8983 15.6775 11.7591 16.5658 11.7175C17.4541 11.6783 17.7366 11.6675 20.0008 11.6675ZM20.0008 15.8341C18.8957 15.8341 17.8359 16.2731 17.0545 17.0545C16.2731 17.8359 15.8341 18.8957 15.8341 20.0008C15.8341 21.1059 16.2731 22.1657 17.0545 22.9471C17.8359 23.7285 18.8957 24.1675 20.0008 24.1675C21.1059 24.1675 22.1657 23.7285 22.9471 22.9471C23.7285 22.1657 24.1675 21.1059 24.1675 20.0008C24.1675 18.8957 23.7285 17.8359 22.9471 17.0545C22.1657 16.2731 21.1059 15.8341 20.0008 15.8341ZM25.4175 15.6258C25.4175 15.3495 25.3077 15.0846 25.1124 14.8892C24.917 14.6939 24.6521 14.5841 24.3758 14.5841C24.0995 14.5841 23.8346 14.6939 23.6392 14.8892C23.4439 15.0846 23.3341 15.3495 23.3341 15.6258C23.3341 15.9021 23.4439 16.167 23.6392 16.3624C23.8346 16.5577 24.0995 16.6675 24.3758 16.6675C24.6521 16.6675 24.917 16.5577 25.1124 16.3624C25.3077 16.167 25.4175 15.9021 25.4175 15.6258ZM20.0008 17.5008C20.6639 17.5008 21.2997 17.7642 21.7686 18.233C22.2374 18.7019 22.5008 19.3378 22.5008 20.0008C22.5008 20.6639 22.2374 21.2997 21.7686 21.7686C21.2997 22.2374 20.6639 22.5008 20.0008 22.5008C19.3378 22.5008 18.7019 22.2374 18.233 21.7686C17.7642 21.2997 17.5008 20.6639 17.5008 20.0008C17.5008 19.3378 17.7642 18.7019 18.233 18.233C18.7019 17.7642 19.3378 17.5008 20.0008 17.5008Z" fill="#141414"/>
</g>
<defs>
<clipPath id="clip0_91_21">
<rect width="20" height="20" fill="white" transform="translate(10 10)"/>
</clipPath>
</defs>
</svg>
