<svg width="28" height="28" viewBox="0 0 28 28" fill="none" xmlns="http://www.w3.org/2000/svg">
<path d="M14 2.625C11.7502 2.625 9.551 3.29213 7.68039 4.54203C5.80978 5.79193 4.35182 7.56847 3.49088 9.64698C2.62993 11.7255 2.40467 14.0126 2.84357 16.2192C3.28248 18.4257 4.36584 20.4525 5.95667 22.0433C7.54749 23.6342 9.57432 24.7175 11.7809 25.1564C13.9874 25.5953 16.2745 25.3701 18.353 24.5091C20.4315 23.6482 22.2081 22.1902 23.458 20.3196C24.7079 18.449 25.375 16.2498 25.375 14C25.3692 10.9849 24.1689 8.09502 22.037 5.96305C19.905 3.83107 17.0151 2.63078 14 2.625ZM18.3313 15.2797L14.6234 18.9984C14.4562 19.1602 14.2327 19.2506 14 19.2506C13.7674 19.2506 13.5438 19.1602 13.3766 18.9984L9.66876 15.2797C9.51794 15.1132 9.43691 14.8952 9.44244 14.6706C9.44797 14.4461 9.53963 14.2323 9.69845 14.0735C9.85728 13.9146 10.0711 13.823 10.2956 13.8174C10.5202 13.8119 10.7382 13.8929 10.9047 14.0437L13.125 16.2641V9.625C13.125 9.39294 13.2172 9.17038 13.3813 9.00628C13.5454 8.84219 13.7679 8.75 14 8.75C14.2321 8.75 14.4546 8.84219 14.6187 9.00628C14.7828 9.17038 14.875 9.39294 14.875 9.625V16.2641L17.0953 14.0437C17.2618 13.8929 17.4798 13.8119 17.7044 13.8174C17.9289 13.823 18.1427 13.9146 18.3016 14.0735C18.4604 14.2323 18.552 14.4461 18.5576 14.6706C18.5631 14.8952 18.4821 15.1132 18.3313 15.2797Z" fill="#141414"/>
</svg>
