<svg width="146" height="52" viewBox="0 0 146 52" fill="none" xmlns="http://www.w3.org/2000/svg">
<g opacity="0.4" clip-path="url(#clip0_9_106)">
<path d="M29.9986 14.3237L16.6054 30.3957H28.6593L27.32 41.11L40.7132 25.0382H28.6593L29.9986 14.3237Z" fill="#414344"/>
<path d="M59.6748 25.5265V30.4843H52.5237V37.2748H46.9048V17.1433H61.1772V22.1011H52.5237V25.5265H59.6748Z" fill="#414344"/>
<path d="M69.0136 17.1433V37.2748H63.8453V17.1433H69.0136Z" fill="#414344"/>
<path d="M77.5412 21.5006C78.3424 21.5006 79.1236 21.6809 79.8848 22.0414C80.6662 22.382 81.307 22.8227 81.8078 23.3635V21.9513H86.9761V37.2753H81.8078V34.7215C81.4274 35.5627 80.8464 36.2738 80.0652 36.8548C79.284 37.4357 78.3424 37.7261 77.2408 37.7261C76.0989 37.7261 75.0271 37.4357 74.0256 36.8548C73.0242 36.2738 72.2027 35.3825 71.5619 34.1805C70.9409 32.9586 70.6303 31.4262 70.6303 29.5833C70.6303 27.8606 70.9409 26.3983 71.5619 25.1964C72.2027 23.9945 73.0442 23.0831 74.0857 22.4621C75.1475 21.8211 76.2992 21.5006 77.5412 21.5006ZM78.623 26.5485C77.8818 26.5485 77.2608 26.849 76.76 27.4499C76.2791 28.0509 76.0388 28.762 76.0388 29.5833C76.0388 30.4047 76.2891 31.0958 76.79 31.6565C77.2909 32.2174 77.9519 32.498 78.7732 32.498C79.2137 32.498 79.6645 32.3876 80.1253 32.1673C80.5859 31.9271 80.9766 31.5764 81.297 31.1158C81.6376 30.635 81.8078 30.024 81.8078 29.2828V27.8105C81.3673 27.4499 80.8664 27.1495 80.3055 26.9091C79.7646 26.6687 79.2037 26.5485 78.623 26.5485Z" fill="#414344"/>
<path d="M94.9928 21.5006C95.9945 21.5006 96.9159 21.6508 97.7571 21.9513C98.6184 22.2317 99.3095 22.6224 99.8304 23.1232V27.1795C99.3095 26.859 98.7186 26.5586 98.0578 26.2781C97.3967 25.9776 96.6856 25.8274 95.9242 25.8274C95.4436 25.8274 95.0128 25.9276 94.6324 26.1279C94.2717 26.3081 94.0914 26.5986 94.0914 26.9992C94.0914 27.2797 94.2016 27.49 94.4218 27.6302C94.6424 27.7705 95.0729 27.9207 95.7139 28.0809L96.6453 28.3213C99.3095 29.0024 100.642 30.4347 100.642 32.6181C100.642 33.6196 100.341 34.5109 99.7403 35.2924C99.1593 36.0536 98.3882 36.6543 97.4268 37.0951C96.4851 37.5158 95.4636 37.7261 94.3618 37.7261C93.2201 37.7261 92.1583 37.5659 91.1769 37.2453C90.1952 36.9049 89.3539 36.4941 88.6528 36.0135V31.9871C89.374 32.4277 90.1852 32.7984 91.0868 33.0987C92.0082 33.3993 92.8294 33.5495 93.5505 33.5495C94.1315 33.5495 94.5523 33.4794 94.8126 33.3393C95.0929 33.1991 95.2331 32.9485 95.2331 32.5881C95.2331 32.3075 95.0729 32.0973 94.7525 31.9571C94.4318 31.7969 93.9713 31.6164 93.3703 31.4162L91.838 30.9353C90.7161 30.5949 89.8948 30.064 89.374 29.3429C88.8531 28.6018 88.5928 27.7003 88.5928 26.6387C88.5928 25.577 88.8731 24.6656 89.434 23.9044C89.995 23.1432 90.7561 22.5523 91.7176 22.1316C92.6993 21.7109 93.7908 21.5006 94.9928 21.5006Z" fill="#414344"/>
<path d="M111.302 21.5002C112.865 21.5002 114.137 22.031 115.118 23.0927C116.119 24.1543 116.62 25.7268 116.62 27.8101V37.2749H111.452L111.422 28.6214C111.422 27.8602 111.212 27.3293 110.791 27.0288C110.371 26.7084 109.9 26.5481 109.379 26.5481C108.818 26.5481 108.347 26.6983 107.967 26.9988C107.586 27.2792 107.256 27.6198 106.975 28.0204V37.2749H101.807V17.1433H106.975V23.934C107.456 23.273 108.037 22.7021 108.718 22.2213C109.419 21.7405 110.28 21.5002 111.302 21.5002Z" fill="#414344"/>
<path d="M116.36 17.2607V17.9H115.591V19.845H114.86V17.9H114.091V17.2607H116.36Z" fill="#414344"/>
<path d="M119.36 17.222V19.8567H118.629V18.5781L118.094 19.1787H117.875L117.34 18.5781V19.8567H116.609V17.222H116.867L117.985 18.3456L119.102 17.222H119.36Z" fill="#414344"/>
</g>
<defs>
<clipPath id="clip0_9_106">
<rect width="145.455" height="51.84" fill="white" transform="translate(0.272385 0.0800171)"/>
</clipPath>
</defs>
</svg>
