<svg width="146" height="46" viewBox="0 0 146 46" fill="none" xmlns="http://www.w3.org/2000/svg">
<g opacity="0.3">
<path d="M33.343 36.3708C34.9936 36.3708 36.4182 36.0421 37.6169 35.3846C38.8352 34.7272 39.7784 33.799 40.4465 32.6001C41.1146 31.3818 41.4487 29.9509 41.4487 28.3072V14.8485H36.88V22.7671H36.7916C36.3396 22.1483 35.7305 21.6649 34.9641 21.3168C34.2174 20.9687 33.3921 20.7947 32.4882 20.7947C31.0734 20.7947 29.8157 21.1138 28.7153 21.7519C27.6346 22.39 26.7798 23.2795 26.151 24.4204C25.5418 25.542 25.2372 26.8472 25.2372 28.3362C25.2372 29.8832 25.5615 31.2658 26.2099 32.4841C26.8584 33.7023 27.7819 34.6595 28.9806 35.3556C30.1989 36.0324 31.653 36.3708 33.343 36.3708ZM33.343 32.4841C32.3015 32.4841 31.4664 32.1166 30.8375 31.3818C30.2087 30.6277 29.8943 29.6995 29.8943 28.5973C29.8943 27.5144 30.2087 26.6055 30.8375 25.8707C31.4664 25.1166 32.3015 24.7395 33.343 24.7395C34.4041 24.7395 35.2392 25.1166 35.8484 25.8707C36.4772 26.6055 36.7916 27.5144 36.7916 28.5973C36.7916 29.6995 36.4772 30.6277 35.8484 31.3818C35.2392 32.1166 34.4041 32.4841 33.343 32.4841Z" fill="#141414"/>
<path d="M52.2866 36.3708C50.7343 36.3708 49.3882 36.0808 48.2485 35.5007C47.1284 34.9012 46.2638 34.0987 45.6547 33.0932C45.0455 32.0683 44.7409 30.9371 44.7409 29.6995V21.1428H49.3096V29.5835C49.3096 30.357 49.5847 31.0338 50.1349 31.6139C50.7048 32.1747 51.4122 32.455 52.2572 32.455C53.0825 32.455 53.7702 32.1747 54.3204 31.6139C54.8903 31.0338 55.1752 30.357 55.1752 29.5835V21.1428H59.7439V29.6995C59.7439 30.9371 59.4492 32.0683 58.8596 33.0932C58.2701 34.0987 57.4154 34.9012 56.2953 35.5007C55.1752 36.0808 53.839 36.3708 52.2866 36.3708Z" fill="#141414"/>
<path d="M63.163 36.0228V14.8485H67.7317V36.0228H63.163Z" fill="#141414"/>
<path d="M77.1795 36.3708C75.8236 36.3708 74.6348 36.0324 73.613 35.3556C72.6108 34.6788 71.8248 33.77 71.255 32.6291C70.6851 31.4689 70.4002 30.1636 70.4002 28.7133C70.4002 27.205 70.7244 25.861 71.3729 24.6815C72.041 23.4826 72.9842 22.535 74.2025 21.8389C75.4405 21.1428 76.9044 20.7947 78.5943 20.7947C80.2842 20.7947 81.7187 21.1428 82.8977 21.8389C84.0964 22.535 85.0101 23.4729 85.6389 24.6525C86.2874 25.832 86.6116 27.1566 86.6116 28.6263V36.0228H82.1314V33.6443H82.0135C81.5812 34.4178 80.9818 35.0656 80.2155 35.5877C79.4491 36.1098 78.4371 36.3708 77.1795 36.3708ZM78.5354 32.4841C79.5768 32.4841 80.4021 32.1166 81.0113 31.3818C81.6401 30.6277 81.9545 29.6898 81.9545 28.5683C81.9545 27.5047 81.6401 26.6055 81.0113 25.8707C80.4021 25.1166 79.5768 24.7395 78.5354 24.7395C77.4546 24.7395 76.5998 25.1166 75.971 25.8707C75.3619 26.6055 75.0573 27.5047 75.0573 28.5683C75.0573 29.6705 75.3619 30.5987 75.971 31.3528C76.5998 32.107 77.4546 32.4841 78.5354 32.4841Z" fill="#141414"/>
<path d="M89.9902 36.0228V14.8485H94.5589V36.0228H89.9902Z" fill="#141414"/>
<path d="M97.9348 36.0228V21.1428H102.533V36.0228H97.9348ZM100.234 19.4604C99.5068 19.4604 98.878 19.1994 98.3474 18.6773C97.8169 18.1552 97.5516 17.5364 97.5516 16.8209C97.5516 16.0861 97.8169 15.4576 98.3474 14.9355C98.878 14.4134 99.5068 14.1523 100.234 14.1523C100.981 14.1523 101.609 14.4134 102.12 14.9355C102.651 15.4576 102.916 16.0861 102.916 16.8209C102.916 17.5364 102.651 18.1552 102.12 18.6773C101.609 19.1994 100.981 19.4604 100.234 19.4604Z" fill="#141414"/>
<path d="M104.759 36.0228L109.357 29.5255C108.159 28.926 107.245 28.1332 106.616 27.147C105.987 26.1414 105.673 25.0102 105.673 23.7533V21.1428H110.242V23.5212C110.242 24.2174 110.438 24.8265 110.831 25.3486C111.244 25.8514 111.755 26.1898 112.364 26.3638L115.842 21.1428H121L116.638 27.379C117.974 27.9205 118.996 28.723 119.703 29.7865C120.43 30.8501 120.794 32.049 120.794 33.3832V36.0228H116.196V33.5283C116.196 32.7548 115.93 32.0973 115.4 31.5559C114.869 30.9951 114.24 30.676 113.513 30.5987L109.888 36.0228H104.759Z" fill="#141414"/>
</g>
</svg>
