<svg width="122" height="25" viewBox="0 0 122 25" fill="none" xmlns="http://www.w3.org/2000/svg">
<g opacity="0.3">
<path d="M37.2893 4.76917C38.6644 4.76917 39.8583 4.99358 40.8708 5.4424C41.8984 5.89122 42.6842 6.53453 43.2282 7.37233C43.7722 8.21013 44.0443 9.20502 44.0443 10.357C44.0443 11.494 43.7722 12.4889 43.2282 13.3417C42.6842 14.1795 41.8984 14.8228 40.8708 15.2716C39.8583 15.7204 38.6644 15.9448 37.2893 15.9448H33.7078V20.4779H30.761V4.76917H37.2893ZM37.1533 13.4763C38.4378 13.4763 39.4125 13.207 40.0774 12.6684C40.7423 12.1298 41.0748 11.3594 41.0748 10.357C41.0748 9.35463 40.7423 8.58415 40.0774 8.04556C39.4125 7.50698 38.4378 7.23768 37.1533 7.23768H33.7078V13.4763H37.1533Z" fill="#141414"/>
<path d="M51.5443 20.635C50.3202 20.635 49.2171 20.3732 48.2348 19.8496C47.2525 19.3259 46.4818 18.6004 45.9227 17.6728C45.3786 16.7303 45.1066 15.668 45.1066 14.4862C45.1066 13.3043 45.3786 12.2495 45.9227 11.322C46.4818 10.3944 47.2525 9.6688 48.2348 9.14518C49.2171 8.62155 50.3202 8.35974 51.5443 8.35974C52.7834 8.35974 53.8942 8.62155 54.8764 9.14518C55.8587 9.6688 56.6218 10.3944 57.1659 11.322C57.725 12.2495 58.0046 13.3043 58.0046 14.4862C58.0046 15.668 57.725 16.7303 57.1659 17.6728C56.6218 18.6004 55.8587 19.3259 54.8764 19.8496C53.8942 20.3732 52.7834 20.635 51.5443 20.635ZM51.5443 18.2338C52.587 18.2338 53.4484 17.8897 54.1284 17.2015C54.8084 16.5133 55.1484 15.6082 55.1484 14.4862C55.1484 13.3641 54.8084 12.459 54.1284 11.7708C53.4484 11.0826 52.587 10.7385 51.5443 10.7385C50.5016 10.7385 49.6402 11.0826 48.9601 11.7708C48.2952 12.459 47.9628 13.3641 47.9628 14.4862C47.9628 15.6082 48.2952 16.5133 48.9601 17.2015C49.6402 17.8897 50.5016 18.2338 51.5443 18.2338Z" fill="#141414"/>
<path d="M66.857 8.35974C68.0358 8.35974 69.086 8.61407 70.0079 9.12273C70.9448 9.6314 71.6777 10.3495 72.2066 11.2771C72.7355 12.2046 73 13.2743 73 14.4862C73 15.698 72.7355 16.7751 72.2066 17.7177C71.6777 18.6452 70.9448 19.3633 70.0079 19.872C69.086 20.3807 68.0358 20.635 66.857 20.635C65.225 20.635 63.9329 20.0964 62.9809 19.0192V24.8315H60.1474V8.49438H62.8449V10.0653C63.3133 9.49675 63.8876 9.07037 64.5676 8.78612C65.2627 8.50187 66.0259 8.35974 66.857 8.35974ZM66.5397 18.2338C67.5824 18.2338 68.4362 17.8897 69.1012 17.2015C69.7812 16.5133 70.1212 15.6082 70.1212 14.4862C70.1212 13.3641 69.7812 12.459 69.1012 11.7708C68.4362 11.0826 67.5824 10.7385 66.5397 10.7385C65.8597 10.7385 65.2476 10.8956 64.7036 11.2098C64.1596 11.509 63.7289 11.9428 63.4115 12.5113C63.0942 13.0798 62.9355 13.7381 62.9355 14.4862C62.9355 15.2342 63.0942 15.8925 63.4115 16.461C63.7289 17.0295 64.1596 17.4708 64.7036 17.785C65.2476 18.0842 65.8597 18.2338 66.5397 18.2338Z" fill="#141414"/>
<path d="M81.8302 8.35974C83.0089 8.35974 84.0592 8.61407 84.981 9.12273C85.9179 9.6314 86.6508 10.3495 87.1797 11.2771C87.7087 12.2046 87.9731 13.2743 87.9731 14.4862C87.9731 15.698 87.7087 16.7751 87.1797 17.7177C86.6508 18.6452 85.9179 19.3633 84.981 19.872C84.0592 20.3807 83.0089 20.635 81.8302 20.635C80.1981 20.635 78.906 20.0964 77.954 19.0192V24.8315H75.1205V8.49438H77.818V10.0653C78.2864 9.49675 78.8607 9.07037 79.5407 8.78612C80.2359 8.50187 80.999 8.35974 81.8302 8.35974ZM81.5128 18.2338C82.5555 18.2338 83.4093 17.8897 84.0743 17.2015C84.7543 16.5133 85.0943 15.6082 85.0943 14.4862C85.0943 13.3641 84.7543 12.459 84.0743 11.7708C83.4093 11.0826 82.5555 10.7385 81.5128 10.7385C80.8328 10.7385 80.2207 10.8956 79.6767 11.2098C79.1327 11.509 78.702 11.9428 78.3847 12.5113C78.0673 13.0798 77.9086 13.7381 77.9086 14.4862C77.9086 15.2342 78.0673 15.8925 78.3847 16.461C78.702 17.0295 79.1327 17.4708 79.6767 17.785C80.2207 18.0842 80.8328 18.2338 81.5128 18.2338Z" fill="#141414"/>
<path d="M95.8512 18.2563C97.166 18.2563 98.2616 17.8224 99.138 16.9547L100.634 18.6826C100.105 19.3259 99.4252 19.8122 98.594 20.1413C97.7629 20.4704 96.8259 20.635 95.7832 20.635C94.4534 20.635 93.2822 20.3732 92.2697 19.8496C91.2572 19.3259 90.4714 18.6004 89.9123 17.6728C89.3682 16.7303 89.0962 15.668 89.0962 14.4862C89.0962 13.3192 89.3607 12.272 89.8896 11.3444C90.4336 10.4019 91.1741 9.6688 92.111 9.14518C93.0631 8.62155 94.136 8.35974 95.3299 8.35974C96.4633 8.35974 97.4909 8.60659 98.4127 9.10029C99.3496 9.57904 100.09 10.2747 100.634 11.1873C101.178 12.085 101.45 13.1397 101.45 14.3515L92.1791 16.1468C92.4662 16.835 92.9271 17.3586 93.5618 17.7177C94.1965 18.0767 94.9596 18.2563 95.8512 18.2563ZM95.3299 10.6038C94.2872 10.6038 93.4409 10.9405 92.7911 11.6137C92.1564 12.2869 91.839 13.192 91.839 14.3291V14.3515L98.6847 13.0499C98.4882 12.3168 98.0878 11.7259 97.4833 11.2771C96.8939 10.8283 96.1761 10.6038 95.3299 10.6038Z" fill="#141414"/>
<path d="M106.303 10.2448C107.119 8.98809 108.555 8.35974 110.61 8.35974V11.0302C110.368 10.9853 110.149 10.9629 109.953 10.9629C108.85 10.9629 107.988 11.2846 107.369 11.9279C106.749 12.5562 106.439 13.4688 106.439 14.6657V20.4779H103.606V8.49438H106.303V10.2448Z" fill="#141414"/>
<path d="M116.231 20.635C115.249 20.635 114.29 20.5078 113.353 20.2535C112.416 19.9992 111.668 19.6775 111.109 19.2885L112.197 17.1566C112.741 17.5157 113.39 17.8074 114.146 18.0318C114.917 18.2413 115.672 18.346 116.413 18.346C118.105 18.346 118.952 17.9047 118.952 17.022C118.952 16.6031 118.732 16.3114 118.294 16.1468C117.871 15.9822 117.184 15.8251 116.231 15.6755C115.234 15.5259 114.418 15.3539 113.783 15.1594C113.164 14.9649 112.62 14.6283 112.151 14.1495C111.698 13.6558 111.471 12.9751 111.471 12.1074C111.471 10.9704 111.947 10.0653 112.899 9.39203C113.866 8.70383 115.166 8.35974 116.798 8.35974C117.629 8.35974 118.46 8.45698 119.292 8.65147C120.123 8.831 120.803 9.07785 121.332 9.39203L120.244 11.5239C119.216 10.9255 118.06 10.6263 116.776 10.6263C115.944 10.6263 115.31 10.7535 114.871 11.0078C114.448 11.2472 114.237 11.5688 114.237 11.9728C114.237 12.4216 114.463 12.7432 114.917 12.9377C115.385 13.1172 116.103 13.2893 117.07 13.4539C118.037 13.6035 118.831 13.7755 119.45 13.97C120.07 14.1645 120.599 14.4936 121.037 14.9574C121.49 15.4212 121.717 16.0795 121.717 16.9322C121.717 18.0543 121.226 18.9519 120.244 19.6252C119.261 20.2984 117.924 20.635 116.231 20.635Z" fill="#141414"/>
<path d="M12.3091 0.730211C9.10281 0.730211 6.0278 1.99118 3.76059 4.23573C1.49337 6.48027 0.219665 9.52452 0.219665 12.6988C0.219665 15.873 1.49337 18.9173 3.76059 21.1618C6.0278 23.4064 9.10281 24.6674 12.3091 24.6674L12.3091 12.6988L12.3091 0.730211Z" fill="#141414"/>
<path d="M21.9811 4.91882C19.8969 4.91882 17.8982 5.73845 16.4245 7.1974C14.9508 8.65636 14.1229 10.6351 14.1229 12.6984C14.1229 14.7617 14.9508 16.7404 16.4245 18.1994C17.8982 19.6583 19.8969 20.478 21.981 20.478L21.9811 12.6984L21.9811 4.91882Z" fill="#141414"/>
</g>
</svg>
