<svg width="56" height="56" viewBox="0 0 56 56" fill="none" xmlns="http://www.w3.org/2000/svg">
<circle cx="28" cy="28" r="28" fill="white"/>
<g clip-path="url(#clip0_89_196)">
<path d="M34.364 33.364L28 39.728L21.636 33.364C20.3773 32.1053 19.5202 30.5017 19.1729 28.7558C18.8257 27.01 19.0039 25.2004 19.6851 23.5559C20.3663 21.9114 21.5198 20.5058 22.9999 19.5168C24.4799 18.5279 26.22 18.0001 28 18.0001C29.78 18.0001 31.5201 18.5279 33.0001 19.5168C34.4802 20.5058 35.6337 21.9114 36.3149 23.5559C36.9961 25.2004 37.1743 27.01 36.8271 28.7558C36.4798 30.5017 35.6227 32.1053 34.364 33.364ZM28 31C29.0609 31 30.0783 30.5786 30.8284 29.8284C31.5786 29.0783 32 28.0608 32 27C32 25.9391 31.5786 24.9217 30.8284 24.1716C30.0783 23.4214 29.0609 23 28 23C26.9391 23 25.9217 23.4214 25.1716 24.1716C24.4214 24.9217 24 25.9391 24 27C24 28.0608 24.4214 29.0783 25.1716 29.8284C25.9217 30.5786 26.9391 31 28 31ZM28 29C27.4696 29 26.9609 28.7893 26.5858 28.4142C26.2107 28.0391 26 27.5304 26 27C26 26.4696 26.2107 25.9608 26.5858 25.5858C26.9609 25.2107 27.4696 25 28 25C28.5304 25 29.0391 25.2107 29.4142 25.5858C29.7893 25.9608 30 26.4696 30 27C30 27.5304 29.7893 28.0391 29.4142 28.4142C29.0391 28.7893 28.5304 29 28 29Z" fill="#141414"/>
</g>
<defs>
<clipPath id="clip0_89_196">
<rect width="24" height="24" fill="white" transform="translate(16 16)"/>
</clipPath>
</defs>
</svg>
