<svg width="56" height="56" viewBox="0 0 56 56" fill="none" xmlns="http://www.w3.org/2000/svg">
<circle cx="28" cy="28" r="28" fill="white"/>
<g clip-path="url(#clip0_89_209)">
<path d="M37 32.42V35.956C37.0001 36.2092 36.9042 36.453 36.7316 36.6382C36.559 36.8234 36.3226 36.9363 36.07 36.954C35.633 36.984 35.276 37 35 37C26.163 37 19 29.837 19 21C19 20.724 19.015 20.367 19.046 19.93C19.0637 19.6774 19.1766 19.441 19.3618 19.2684C19.547 19.0958 19.7908 18.9999 20.044 19H23.58C23.704 18.9999 23.8237 19.0459 23.9157 19.129C24.0078 19.2122 24.0656 19.3266 24.078 19.45C24.101 19.68 24.122 19.863 24.142 20.002C24.3407 21.3889 24.748 22.7378 25.35 24.003C25.445 24.203 25.383 24.442 25.203 24.57L23.045 26.112C24.3645 29.1865 26.8145 31.6365 29.889 32.956L31.429 30.802C31.4919 30.714 31.5838 30.6509 31.6885 30.6237C31.7932 30.5964 31.9042 30.6068 32.002 30.653C33.267 31.2539 34.6156 31.6601 36.002 31.858C36.141 31.878 36.324 31.9 36.552 31.922C36.6752 31.9346 36.7894 31.9926 36.8724 32.0846C36.9553 32.1766 37.0012 32.2961 37.001 32.42H37Z" fill="#141414"/>
</g>
<defs>
<clipPath id="clip0_89_209">
<rect width="24" height="24" fill="white" transform="translate(16 16)"/>
</clipPath>
</defs>
</svg>
